<?xml version="1.0" encoding="UTF-8" standalone="no"?>
<!DOCTYPE svg PUBLIC "-//W3C//DTD SVG 1.1//EN"
 "http://www.w3.org/Graphics/SVG/1.1/DTD/svg11.dtd">
<!-- Generated by graphviz version 2.40.1 (20161225.0304)
 -->
<!-- Title: SEM Pages: 1 -->
<svg width="736pt" height="146pt"
 viewBox="0.00 0.00 736.37 145.93" xmlns="http://www.w3.org/2000/svg" xmlns:xlink="http://www.w3.org/1999/xlink">
<g id="graph0" class="graph" transform="scale(1 1) rotate(0) translate(4 141.9331)">
<title>SEM</title>
<polygon fill="#ffffff" stroke="transparent" points="-4,4 -4,-141.9331 732.3668,-141.9331 732.3668,4 -4,4"/>
<!-- sphere -->
<g id="node1" class="node">
<title>sphere</title>
<polygon fill="none" stroke="#000000" points="64.5815,-109.9331 10.5815,-109.9331 10.5815,-73.9331 64.5815,-73.9331 64.5815,-109.9331"/>
<text text-anchor="middle" x="37.5815" y="-88.9331" font-family="Times,serif" font-size="10.00" fill="#000000">Sphere</text>
</g>
<!-- fin_res -->
<g id="node5" class="node">
<title>fin_res</title>
<polygon fill="none" stroke="#000000" points="232.0328,-65.9331 140.4204,-65.9331 140.4204,-29.9331 232.0328,-29.9331 232.0328,-65.9331"/>
<text text-anchor="middle" x="186.2266" y="-50.9331" font-family="Times,serif" font-size="10.00" fill="#000000">Finantial resources</text>
<text text-anchor="middle" x="186.2266" y="-38.9331" font-family="Times,serif" font-size="10.00" fill="#000000">R² = 0.34</text>
</g>
<!-- sphere&#45;&gt;fin_res -->
<g id="edge8" class="edge">
<title>sphere&#45;&gt;fin_res</title>
<path fill="none" stroke="#000000" stroke-width="1.4" d="M64.8453,-83.8628C83.1707,-78.4384 107.9802,-71.0946 130.394,-64.46"/>
<polygon fill="#000000" stroke="#000000" stroke-width="1.4" points="131.5631,-67.7641 140.1584,-61.5696 129.5762,-61.052 131.5631,-67.7641"/>
<text text-anchor="middle" x="107.7433" y="-80.1331" font-family="Times,serif" font-size="14.00" fill="#000000">&#45;0.40</text>
</g>
<!-- hum_res -->
<g id="node6" class="node">
<title>hum_res</title>
<polygon fill="none" stroke="#000000" points="228.9172,-137.9331 143.536,-137.9331 143.536,-101.9331 228.9172,-101.9331 228.9172,-137.9331"/>
<text text-anchor="middle" x="186.2266" y="-122.9331" font-family="Times,serif" font-size="10.00" fill="#000000">Human resources</text>
<text text-anchor="middle" x="186.2266" y="-110.9331" font-family="Times,serif" font-size="10.00" fill="#000000">R² = 0.02</text>
</g>
<!-- sphere&#45;&gt;hum_res -->
<g id="edge7" class="edge">
<title>sphere&#45;&gt;hum_res</title>
<path fill="none" stroke="#000000" stroke-width="1.13" d="M64.7054,-97.3841C73.7508,-99.1798 83.8862,-101.1679 93.163,-102.9331 106.0216,-105.3798 119.8934,-107.9507 132.9013,-110.3313"/>
<polygon fill="#000000" stroke="#000000" stroke-width="1.13" points="132.6465,-113.8425 143.1123,-112.1937 133.9026,-106.9561 132.6465,-113.8425"/>
<text text-anchor="middle" x="89.0087" y="-109.1032" font-family="Times,serif" font-size="14.00" fill="#000000">&#45;0.13</text>
</g>
<!-- arpa -->
<g id="node2" class="node">
<title>arpa</title>
<polygon fill="none" stroke="#000000" points="75.2447,-46.9331 -.0817,-46.9331 -.0817,-10.9331 75.2447,-10.9331 75.2447,-46.9331"/>
<text text-anchor="middle" x="37.5815" y="-25.9331" font-family="Times,serif" font-size="10.00" fill="#000000">ARPA support</text>
</g>
<!-- arpa&#45;&gt;fin_res -->
<g id="edge9" class="edge">
<title>arpa&#45;&gt;fin_res</title>
<path fill="none" stroke="#000000" stroke-width="1.35" d="M75.4755,-33.7768C92.0953,-35.9011 111.9438,-38.4382 130.2173,-40.7739"/>
<polygon fill="#000000" stroke="#000000" stroke-width="1.35" points="129.8135,-44.2507 140.1766,-42.047 130.7011,-37.3072 129.8135,-44.2507"/>
<text text-anchor="middle" x="107.7433" y="-44.1331" font-family="Times,serif" font-size="14.00" fill="#000000">0.35</text>
</g>
<!-- manag_index -->
<g id="node7" class="node">
<title>manag_index</title>
<polygon fill="none" stroke="#000000" points="385.5111,-65.9331 292.6691,-65.9331 292.6691,-29.9331 385.5111,-29.9331 385.5111,-65.9331"/>
<text text-anchor="middle" x="339.0901" y="-50.9331" font-family="Times,serif" font-size="10.00" fill="#000000">Management index</text>
<text text-anchor="middle" x="339.0901" y="-38.9331" font-family="Times,serif" font-size="10.00" fill="#000000">R² = 0.62</text>
</g>
<!-- arpa&#45;&gt;manag_index -->
<g id="edge3" class="edge">
<title>arpa&#45;&gt;manag_index</title>
<path fill="none" stroke="#000000" stroke-width="1.29" d="M75.4837,-16.9489C114.8694,-6.1632 178.1755,6.486 232.1296,-4.1331 253.6885,-8.3763 276.3735,-17.003 295.277,-25.4871"/>
<polygon fill="#000000" stroke="#000000" stroke-width="1.29" points="293.9648,-28.7363 304.5108,-29.7531 296.9007,-22.3817 293.9648,-28.7363"/>
<text text-anchor="middle" x="186.2266" y="-9.1331" font-family="Times,serif" font-size="14.00" fill="#000000">0.29</text>
</g>
<!-- hq_dist -->
<g id="node3" class="node">
<title>hq_dist</title>
<polygon fill="none" stroke="#000000" points="536.1492,-137.9331 457.0712,-137.9331 457.0712,-101.9331 536.1492,-101.9331 536.1492,-137.9331"/>
<text text-anchor="middle" x="496.6102" y="-122.9331" font-family="Times,serif" font-size="10.00" fill="#000000">Municipal seats</text>
<text text-anchor="middle" x="496.6102" y="-110.9331" font-family="Times,serif" font-size="10.00" fill="#000000">distance</text>
</g>
<!-- in_def -->
<g id="node4" class="node">
<title>in_def</title>
<polygon fill="none" stroke="#000000" points="542.4084,-65.9331 450.812,-65.9331 450.812,-29.9331 542.4084,-29.9331 542.4084,-65.9331"/>
<text text-anchor="middle" x="496.6102" y="-50.9331" font-family="Times,serif" font-size="10.00" fill="#000000">Inner deforestation</text>
<text text-anchor="middle" x="496.6102" y="-38.9331" font-family="Times,serif" font-size="10.00" fill="#000000">R² = 0.51</text>
</g>
<!-- hq_dist&#45;&gt;in_def -->
<g id="edge5" class="edge">
<title>hq_dist&#45;&gt;in_def</title>
<path fill="none" stroke="#000000" stroke-dasharray="5,2" d="M496.6102,-101.887C496.6102,-93.3404 496.6102,-84.7939 496.6102,-76.2473"/>
<polygon fill="#000000" stroke="#000000" points="500.1103,-76.2143 496.6102,-66.2144 493.1103,-76.2144 500.1103,-76.2143"/>
</g>
<!-- ext_def -->
<g id="node8" class="node">
<title>ext_def</title>
<polygon fill="none" stroke="#000000" points="728.2157,-101.9331 607.8209,-101.9331 607.8209,-65.9331 728.2157,-65.9331 728.2157,-101.9331"/>
<text text-anchor="middle" x="668.0183" y="-86.9331" font-family="Times,serif" font-size="10.00" fill="#000000">Surrounding deforestation</text>
<text text-anchor="middle" x="668.0183" y="-74.9331" font-family="Times,serif" font-size="10.00" fill="#000000">R² = 0.39</text>
</g>
<!-- hq_dist&#45;&gt;ext_def -->
<g id="edge10" class="edge">
<title>hq_dist&#45;&gt;ext_def</title>
<path fill="none" stroke="#000000" stroke-width="1.63" d="M536.3655,-111.5835C554.6361,-107.7462 576.8622,-103.0782 597.8106,-98.6785"/>
<polygon fill="#000000" stroke="#000000" stroke-width="1.63" points="598.5794,-102.0935 607.6465,-96.6127 597.1406,-95.2429 598.5794,-102.0935"/>
<text text-anchor="middle" x="575.0895" y="-110.1331" font-family="Times,serif" font-size="14.00" fill="#000000">&#45;0.63</text>
</g>
<!-- fin_res&#45;&gt;manag_index -->
<g id="edge2" class="edge">
<title>fin_res&#45;&gt;manag_index</title>
<path fill="none" stroke="#000000" stroke-width="1.36" d="M232.0907,-47.9331C247.8944,-47.9331 265.7855,-47.9331 282.352,-47.9331"/>
<polygon fill="#000000" stroke="#000000" stroke-width="1.36" points="282.4653,-51.4332 292.4653,-47.9331 282.4653,-44.4332 282.4653,-51.4332"/>
<text text-anchor="middle" x="262.3796" y="-52.1331" font-family="Times,serif" font-size="14.00" fill="#000000">0.36</text>
</g>
<!-- hum_res&#45;&gt;fin_res -->
<g id="edge11" class="edge">
<title>hum_res&#45;&gt;fin_res</title>
<path fill="none" stroke="#c0c0c0" stroke-width="1.41" d="M186.2266,-91.243C186.2266,-86.3428 186.2266,-81.2539 186.2266,-76.3606"/>
<polygon fill="#c0c0c0" stroke="#c0c0c0" stroke-width="1.41" points="182.7267,-91.5198 186.2266,-101.5199 189.7267,-91.5199 182.7267,-91.5198"/>
<polygon fill="#c0c0c0" stroke="#c0c0c0" stroke-width="1.41" points="189.7267,-76.1017 186.2266,-66.1018 182.7267,-76.1018 189.7267,-76.1017"/>
<text text-anchor="middle" x="174.8266" y="-79.7331" font-family="Times,serif" font-size="14.00" fill="#000000">0.41</text>
</g>
<!-- hum_res&#45;&gt;manag_index -->
<g id="edge1" class="edge">
<title>hum_res&#45;&gt;manag_index</title>
<path fill="none" stroke="#000000" stroke-width="1.4" d="M224.8005,-101.7645C245.0634,-92.2205 270.0755,-80.4396 291.5297,-70.3345"/>
<polygon fill="#000000" stroke="#000000" stroke-width="1.4" points="293.2382,-73.3986 300.7936,-65.9711 290.2554,-67.0659 293.2382,-73.3986"/>
<text text-anchor="middle" x="262.3796" y="-92.1331" font-family="Times,serif" font-size="14.00" fill="#000000">0.40</text>
</g>
<!-- manag_index&#45;&gt;in_def -->
<g id="edge6" class="edge">
<title>manag_index&#45;&gt;in_def</title>
<path fill="none" stroke="#000000" stroke-width="1.11" d="M385.9248,-47.9331C403.138,-47.9331 422.8001,-47.9331 440.7299,-47.9331"/>
<polygon fill="#000000" stroke="#000000" stroke-width="1.11" points="440.7695,-51.4332 450.7694,-47.9331 440.7694,-44.4332 440.7695,-51.4332"/>
<text text-anchor="middle" x="418.1309" y="-52.1331" font-family="Times,serif" font-size="14.00" fill="#000000">&#45;0.11</text>
</g>
<!-- ext_def&#45;&gt;in_def -->
<g id="edge4" class="edge">
<title>ext_def&#45;&gt;in_def</title>
<path fill="none" stroke="#000000" stroke-width="1.67" d="M607.7557,-71.2765C589.8469,-67.5152 570.3082,-63.4115 552.6777,-59.7087"/>
<polygon fill="#000000" stroke="#000000" stroke-width="1.67" points="553.0503,-56.2107 542.5444,-57.5805 551.6115,-63.0612 553.0503,-56.2107"/>
<text text-anchor="middle" x="575.0895" y="-72.1331" font-family="Times,serif" font-size="14.00" fill="#000000">0.67</text>
</g>
</g>
</svg>

