<?xml version="1.0" encoding="UTF-8" standalone="no"?>
<!DOCTYPE svg PUBLIC "-//W3C//DTD SVG 1.1//EN"
 "http://www.w3.org/Graphics/SVG/1.1/DTD/svg11.dtd">
<!-- Generated by graphviz version 2.40.1 (20161225.0304)
 -->
<!-- Title: SEM Pages: 1 -->
<svg width="738pt" height="146pt"
 viewBox="0.00 0.00 738.03 145.99" xmlns="http://www.w3.org/2000/svg" xmlns:xlink="http://www.w3.org/1999/xlink">
<g id="graph0" class="graph" transform="scale(1 1) rotate(0) translate(4 141.9856)">
<title>SEM</title>
<polygon fill="#ffffff" stroke="transparent" points="-4,4 -4,-141.9856 734.0268,-141.9856 734.0268,4 -4,4"/>
<!-- sphere -->
<g id="node1" class="node">
<title>sphere</title>
<polygon fill="none" stroke="#000000" points="64.5815,-109.9856 10.5815,-109.9856 10.5815,-73.9856 64.5815,-73.9856 64.5815,-109.9856"/>
<text text-anchor="middle" x="37.5815" y="-88.9856" font-family="Times,serif" font-size="10.00" fill="#000000">Sphere</text>
</g>
<!-- fin_res -->
<g id="node5" class="node">
<title>fin_res</title>
<polygon fill="none" stroke="#000000" points="234.0238,-65.9856 140.0894,-65.9856 140.0894,-29.9856 234.0238,-29.9856 234.0238,-65.9856"/>
<text text-anchor="middle" x="187.0566" y="-50.9856" font-family="Times,serif" font-size="10.00" fill="#000000">Financial resources</text>
<text text-anchor="middle" x="187.0566" y="-38.9856" font-family="Times,serif" font-size="10.00" fill="#000000">R² = 0.34</text>
</g>
<!-- sphere&#45;&gt;fin_res -->
<g id="edge8" class="edge">
<title>sphere&#45;&gt;fin_res</title>
<path fill="none" stroke="#000000" stroke-width="1.4" d="M64.6503,-84.0176C82.9716,-78.6245 107.8523,-71.3005 130.3979,-64.6639"/>
<polygon fill="#000000" stroke="#000000" stroke-width="1.4" points="131.62,-67.9527 140.2247,-61.7713 129.6433,-61.2376 131.62,-67.9527"/>
<text text-anchor="middle" x="107.7433" y="-80.1856" font-family="Times,serif" font-size="14.00" fill="#000000">&#45;0.40</text>
</g>
<!-- hum_res -->
<g id="node6" class="node">
<title>hum_res</title>
<polygon fill="none" stroke="#000000" points="229.7472,-137.9856 144.366,-137.9856 144.366,-101.9856 229.7472,-101.9856 229.7472,-137.9856"/>
<text text-anchor="middle" x="187.0566" y="-122.9856" font-family="Times,serif" font-size="10.00" fill="#000000">Human resources</text>
<text text-anchor="middle" x="187.0566" y="-110.9856" font-family="Times,serif" font-size="10.00" fill="#000000">R² = 0.02</text>
</g>
<!-- sphere&#45;&gt;hum_res -->
<g id="edge7" class="edge">
<title>sphere&#45;&gt;hum_res</title>
<path fill="none" stroke="#000000" stroke-width="1.13" d="M64.7038,-97.4451C73.7491,-99.2414 83.8848,-101.2277 93.163,-102.9856 106.3927,-105.4923 120.6867,-108.1209 134.0356,-110.5414"/>
<polygon fill="#000000" stroke="#000000" stroke-width="1.13" points="133.5631,-114.0126 144.026,-112.3463 134.8076,-107.1241 133.5631,-114.0126"/>
<text text-anchor="middle" x="89.6328" y="-109.2625" font-family="Times,serif" font-size="14.00" fill="#000000">&#45;0.13</text>
</g>
<!-- arpa -->
<g id="node2" class="node">
<title>arpa</title>
<polygon fill="none" stroke="#000000" points="75.2447,-46.9856 -.0817,-46.9856 -.0817,-10.9856 75.2447,-10.9856 75.2447,-46.9856"/>
<text text-anchor="middle" x="37.5815" y="-25.9856" font-family="Times,serif" font-size="10.00" fill="#000000">ARPA support</text>
</g>
<!-- arpa&#45;&gt;fin_res -->
<g id="edge9" class="edge">
<title>arpa&#45;&gt;fin_res</title>
<path fill="none" stroke="#000000" stroke-width="1.35" d="M75.3004,-33.7801C91.9381,-35.895 111.8503,-38.4261 130.2276,-40.762"/>
<polygon fill="#000000" stroke="#000000" stroke-width="1.35" points="129.8871,-44.2468 140.2487,-42.0358 130.7698,-37.3027 129.8871,-44.2468"/>
<text text-anchor="middle" x="107.7433" y="-44.1856" font-family="Times,serif" font-size="14.00" fill="#000000">0.35</text>
</g>
<!-- manag_index -->
<g id="node7" class="node">
<title>manag_index</title>
<polygon fill="none" stroke="#000000" points="387.1711,-65.9856 294.3291,-65.9856 294.3291,-29.9856 387.1711,-29.9856 387.1711,-65.9856"/>
<text text-anchor="middle" x="340.7501" y="-50.9856" font-family="Times,serif" font-size="10.00" fill="#000000">Management index</text>
<text text-anchor="middle" x="340.7501" y="-38.9856" font-family="Times,serif" font-size="10.00" fill="#000000">R² = 0.64</text>
</g>
<!-- arpa&#45;&gt;manag_index -->
<g id="edge3" class="edge">
<title>arpa&#45;&gt;manag_index</title>
<path fill="none" stroke="#000000" stroke-width="1.29" d="M75.4418,-17.0654C115.1388,-6.2286 179.214,6.5558 233.7896,-4.1856 255.3485,-8.4288 278.0335,-17.0556 296.937,-25.5396"/>
<polygon fill="#000000" stroke="#000000" stroke-width="1.29" points="295.6248,-28.7888 306.1708,-29.8057 298.5607,-22.4342 295.6248,-28.7888"/>
<text text-anchor="middle" x="187.0566" y="-9.1856" font-family="Times,serif" font-size="14.00" fill="#000000">0.29</text>
</g>
<!-- hq_dist -->
<g id="node3" class="node">
<title>hq_dist</title>
<polygon fill="none" stroke="#000000" points="537.8092,-137.9856 458.7312,-137.9856 458.7312,-101.9856 537.8092,-101.9856 537.8092,-137.9856"/>
<text text-anchor="middle" x="498.2702" y="-122.9856" font-family="Times,serif" font-size="10.00" fill="#000000">Municipal seats</text>
<text text-anchor="middle" x="498.2702" y="-110.9856" font-family="Times,serif" font-size="10.00" fill="#000000">distance</text>
</g>
<!-- in_def -->
<g id="node4" class="node">
<title>in_def</title>
<polygon fill="none" stroke="#000000" points="544.0684,-65.9856 452.472,-65.9856 452.472,-29.9856 544.0684,-29.9856 544.0684,-65.9856"/>
<text text-anchor="middle" x="498.2702" y="-50.9856" font-family="Times,serif" font-size="10.00" fill="#000000">Inner deforestation</text>
<text text-anchor="middle" x="498.2702" y="-38.9856" font-family="Times,serif" font-size="10.00" fill="#000000">R² = 0.51</text>
</g>
<!-- hq_dist&#45;&gt;in_def -->
<g id="edge5" class="edge">
<title>hq_dist&#45;&gt;in_def</title>
<path fill="none" stroke="#000000" stroke-dasharray="5,2" d="M498.2702,-101.9395C498.2702,-93.3929 498.2702,-84.8464 498.2702,-76.2998"/>
<polygon fill="#000000" stroke="#000000" points="501.7703,-76.2669 498.2702,-66.2669 494.7703,-76.2669 501.7703,-76.2669"/>
</g>
<!-- ext_def -->
<g id="node8" class="node">
<title>ext_def</title>
<polygon fill="none" stroke="#000000" points="729.8757,-101.9856 609.4809,-101.9856 609.4809,-65.9856 729.8757,-65.9856 729.8757,-101.9856"/>
<text text-anchor="middle" x="669.6783" y="-86.9856" font-family="Times,serif" font-size="10.00" fill="#000000">Surrounding deforestation</text>
<text text-anchor="middle" x="669.6783" y="-74.9856" font-family="Times,serif" font-size="10.00" fill="#000000">R² = 0.39</text>
</g>
<!-- hq_dist&#45;&gt;ext_def -->
<g id="edge10" class="edge">
<title>hq_dist&#45;&gt;ext_def</title>
<path fill="none" stroke="#000000" stroke-width="1.63" d="M538.0255,-111.636C556.2961,-107.7987 578.5222,-103.1307 599.4706,-98.731"/>
<polygon fill="#000000" stroke="#000000" stroke-width="1.63" points="600.2394,-102.146 609.3065,-96.6652 598.8006,-95.2955 600.2394,-102.146"/>
<text text-anchor="middle" x="576.7495" y="-110.1856" font-family="Times,serif" font-size="14.00" fill="#000000">&#45;0.63</text>
</g>
<!-- fin_res&#45;&gt;manag_index -->
<g id="edge2" class="edge">
<title>fin_res&#45;&gt;manag_index</title>
<path fill="none" stroke="#000000" stroke-width="1.35" d="M234.0048,-47.9856C249.7956,-47.9856 267.5818,-47.9856 284.0418,-47.9856"/>
<polygon fill="#000000" stroke="#000000" stroke-width="1.35" points="284.0894,-51.4857 294.0894,-47.9856 284.0893,-44.4857 284.0894,-51.4857"/>
<text text-anchor="middle" x="264.0396" y="-52.1856" font-family="Times,serif" font-size="14.00" fill="#000000">0.36</text>
</g>
<!-- hum_res&#45;&gt;fin_res -->
<g id="edge11" class="edge">
<title>hum_res&#45;&gt;fin_res</title>
<path fill="none" stroke="#c0c0c0" stroke-width="1.41" d="M187.0566,-91.2955C187.0566,-86.3953 187.0566,-81.3064 187.0566,-76.4131"/>
<polygon fill="#c0c0c0" stroke="#c0c0c0" stroke-width="1.41" points="183.5567,-91.5723 187.0566,-101.5724 190.5567,-91.5724 183.5567,-91.5723"/>
<polygon fill="#c0c0c0" stroke="#c0c0c0" stroke-width="1.41" points="190.5567,-76.1542 187.0566,-66.1543 183.5567,-76.1543 190.5567,-76.1542"/>
<text text-anchor="middle" x="175.6566" y="-79.7856" font-family="Times,serif" font-size="14.00" fill="#000000">0.41</text>
</g>
<!-- hum_res&#45;&gt;manag_index -->
<g id="edge1" class="edge">
<title>hum_res&#45;&gt;manag_index</title>
<path fill="none" stroke="#000000" stroke-width="1.4" d="M225.84,-101.817C246.2128,-92.273 271.3608,-80.4921 292.9315,-70.387"/>
<polygon fill="#000000" stroke="#000000" stroke-width="1.4" points="294.6748,-73.4354 302.2456,-66.0236 291.7052,-67.0965 294.6748,-73.4354"/>
<text text-anchor="middle" x="264.0396" y="-92.1856" font-family="Times,serif" font-size="14.00" fill="#000000">0.40</text>
</g>
<!-- manag_index&#45;&gt;in_def -->
<g id="edge6" class="edge">
<title>manag_index&#45;&gt;in_def</title>
<path fill="none" stroke="#000000" stroke-width="1.11" d="M387.5848,-47.9856C404.798,-47.9856 424.4601,-47.9856 442.3899,-47.9856"/>
<polygon fill="#000000" stroke="#000000" stroke-width="1.11" points="442.4295,-51.4857 452.4294,-47.9856 442.4294,-44.4857 442.4295,-51.4857"/>
<text text-anchor="middle" x="419.7909" y="-52.1856" font-family="Times,serif" font-size="14.00" fill="#000000">&#45;0.11</text>
</g>
<!-- ext_def&#45;&gt;in_def -->
<g id="edge4" class="edge">
<title>ext_def&#45;&gt;in_def</title>
<path fill="none" stroke="#000000" stroke-width="1.67" d="M609.4157,-71.329C591.5069,-67.5677 571.9682,-63.4641 554.3377,-59.7612"/>
<polygon fill="#000000" stroke="#000000" stroke-width="1.67" points="554.7103,-56.2632 544.2044,-57.633 553.2715,-63.1137 554.7103,-56.2632"/>
<text text-anchor="middle" x="576.7495" y="-72.1856" font-family="Times,serif" font-size="14.00" fill="#000000">0.67</text>
</g>
</g>
</svg>

